<mxfile host="app.diagrams.net" modified="2023-10-12T11:27:30.037Z" agent="Mozilla/5.0 (Windows NT 10.0; Win64; x64) AppleWebKit/537.36 (KHTML, like Gecko) Chrome/117.0.0.0 Safari/537.36" etag="c2DPcUxS-dCwnz4kfPkI" version="22.0.4" type="device">
  <diagram name="Page-1" id="tOPXSpTKZ1Zzr0q45kVo">
    <mxGraphModel dx="6133" dy="2443" grid="0" gridSize="10" guides="1" tooltips="1" connect="1" arrows="1" fold="1" page="1" pageScale="1" pageWidth="1100" pageHeight="850" math="0" shadow="0">
      <root>
        <mxCell id="0" />
        <mxCell id="1" parent="0" />
        <mxCell id="t_FcoR5q3SVmJZleG2-6-2" value="&lt;h1&gt;&lt;font style=&quot;font-size: 36px;&quot;&gt;First Pass&lt;/font&gt;&lt;/h1&gt;" style="rounded=0;whiteSpace=wrap;html=1;" parent="1" vertex="1">
          <mxGeometry x="4010" y="760" width="2180" height="60" as="geometry" />
        </mxCell>
        <mxCell id="t_FcoR5q3SVmJZleG2-6-13" value="" style="rounded=0;whiteSpace=wrap;html=1;fillColor=none;" parent="1" vertex="1">
          <mxGeometry x="5800" y="840" width="390" height="750" as="geometry" />
        </mxCell>
        <mxCell id="t_FcoR5q3SVmJZleG2-6-15" value="&lt;font style=&quot;font-size: 36px;&quot;&gt;Lasso 1&lt;/font&gt;" style="rounded=1;whiteSpace=wrap;html=1;" parent="1" vertex="1">
          <mxGeometry x="4280" y="1090" width="290" height="90" as="geometry" />
        </mxCell>
        <mxCell id="t_FcoR5q3SVmJZleG2-6-106" value="Lasso on seed s1" style="rounded=1;whiteSpace=wrap;html=1;" parent="1" vertex="1">
          <mxGeometry x="4280" y="1330" width="120" height="30" as="geometry" />
        </mxCell>
        <mxCell id="t_FcoR5q3SVmJZleG2-6-110" value="Lasso on seed s2" style="rounded=1;whiteSpace=wrap;html=1;" parent="1" vertex="1">
          <mxGeometry x="4280" y="1370" width="120" height="30" as="geometry" />
        </mxCell>
        <mxCell id="t_FcoR5q3SVmJZleG2-6-111" value="&lt;font style=&quot;font-size: 11px;&quot;&gt;---------------&lt;/font&gt;" style="rounded=1;whiteSpace=wrap;html=1;" parent="1" vertex="1">
          <mxGeometry x="4280" y="1410" width="120" height="30" as="geometry" />
        </mxCell>
        <mxCell id="t_FcoR5q3SVmJZleG2-6-112" value="Lasso on seed s19" style="rounded=1;whiteSpace=wrap;html=1;" parent="1" vertex="1">
          <mxGeometry x="4280" y="1450" width="120" height="30" as="geometry" />
        </mxCell>
        <mxCell id="t_FcoR5q3SVmJZleG2-6-113" value="Lasso on seed s20" style="rounded=1;whiteSpace=wrap;html=1;" parent="1" vertex="1">
          <mxGeometry x="4280" y="1490" width="120" height="30" as="geometry" />
        </mxCell>
        <mxCell id="t_FcoR5q3SVmJZleG2-6-114" value="&lt;font style=&quot;font-size: 18px;&quot;&gt;Self Effect&lt;/font&gt;" style="rounded=1;whiteSpace=wrap;html=1;" parent="1" vertex="1">
          <mxGeometry x="4280" y="1220" width="120" height="50" as="geometry" />
        </mxCell>
        <mxCell id="t_FcoR5q3SVmJZleG2-6-115" value="" style="rounded=0;whiteSpace=wrap;html=1;fillColor=none;" parent="1" vertex="1">
          <mxGeometry x="4270" y="1300" width="140" height="240" as="geometry" />
        </mxCell>
        <mxCell id="t_FcoR5q3SVmJZleG2-6-116" value="" style="shape=flexArrow;endArrow=classic;html=1;rounded=0;exitX=0.5;exitY=0;exitDx=0;exitDy=0;" parent="1" source="t_FcoR5q3SVmJZleG2-6-115" edge="1">
          <mxGeometry width="50" height="50" relative="1" as="geometry">
            <mxPoint x="4290" y="1310" as="sourcePoint" />
            <mxPoint x="4340" y="1270" as="targetPoint" />
          </mxGeometry>
        </mxCell>
        <mxCell id="t_FcoR5q3SVmJZleG2-6-117" value="Lasso on seed s1" style="rounded=1;whiteSpace=wrap;html=1;" parent="1" vertex="1">
          <mxGeometry x="4440" y="1330" width="120" height="30" as="geometry" />
        </mxCell>
        <mxCell id="t_FcoR5q3SVmJZleG2-6-118" value="Lasso on seed s2" style="rounded=1;whiteSpace=wrap;html=1;" parent="1" vertex="1">
          <mxGeometry x="4440" y="1370" width="120" height="30" as="geometry" />
        </mxCell>
        <mxCell id="t_FcoR5q3SVmJZleG2-6-119" value="&lt;font style=&quot;font-size: 11px;&quot;&gt;---------------&lt;/font&gt;" style="rounded=1;whiteSpace=wrap;html=1;" parent="1" vertex="1">
          <mxGeometry x="4440" y="1410" width="120" height="30" as="geometry" />
        </mxCell>
        <mxCell id="t_FcoR5q3SVmJZleG2-6-120" value="Lasso on seed s19" style="rounded=1;whiteSpace=wrap;html=1;" parent="1" vertex="1">
          <mxGeometry x="4440" y="1450" width="120" height="30" as="geometry" />
        </mxCell>
        <mxCell id="t_FcoR5q3SVmJZleG2-6-121" value="Lasso on seed s20" style="rounded=1;whiteSpace=wrap;html=1;" parent="1" vertex="1">
          <mxGeometry x="4440" y="1490" width="120" height="30" as="geometry" />
        </mxCell>
        <mxCell id="t_FcoR5q3SVmJZleG2-6-122" value="&lt;font style=&quot;font-size: 18px;&quot;&gt;Interaction Effect&lt;/font&gt;" style="rounded=1;whiteSpace=wrap;html=1;" parent="1" vertex="1">
          <mxGeometry x="4440" y="1220" width="120" height="50" as="geometry" />
        </mxCell>
        <mxCell id="t_FcoR5q3SVmJZleG2-6-123" value="" style="rounded=0;whiteSpace=wrap;html=1;fillColor=none;" parent="1" vertex="1">
          <mxGeometry x="4430" y="1300" width="140" height="240" as="geometry" />
        </mxCell>
        <mxCell id="t_FcoR5q3SVmJZleG2-6-124" value="" style="shape=flexArrow;endArrow=classic;html=1;rounded=0;exitX=0.5;exitY=0;exitDx=0;exitDy=0;" parent="1" source="t_FcoR5q3SVmJZleG2-6-123" edge="1">
          <mxGeometry width="50" height="50" relative="1" as="geometry">
            <mxPoint x="4450" y="1310" as="sourcePoint" />
            <mxPoint x="4500" y="1270" as="targetPoint" />
          </mxGeometry>
        </mxCell>
        <mxCell id="t_FcoR5q3SVmJZleG2-6-129" value="" style="shape=flexArrow;endArrow=classic;html=1;rounded=0;exitX=0.5;exitY=0;exitDx=0;exitDy=0;" parent="1" source="t_FcoR5q3SVmJZleG2-6-122" edge="1">
          <mxGeometry width="50" height="50" relative="1" as="geometry">
            <mxPoint x="4499.5" y="1210" as="sourcePoint" />
            <mxPoint x="4499.5" y="1180" as="targetPoint" />
          </mxGeometry>
        </mxCell>
        <mxCell id="t_FcoR5q3SVmJZleG2-6-130" value="" style="shape=flexArrow;endArrow=classic;html=1;rounded=0;exitX=0.444;exitY=0.017;exitDx=0;exitDy=0;exitPerimeter=0;" parent="1" source="t_FcoR5q3SVmJZleG2-6-15" edge="1">
          <mxGeometry width="50" height="50" relative="1" as="geometry">
            <mxPoint x="4410.5" y="1080" as="sourcePoint" />
            <mxPoint x="4410" y="1040" as="targetPoint" />
            <Array as="points">
              <mxPoint x="4410" y="1080" />
            </Array>
          </mxGeometry>
        </mxCell>
        <mxCell id="t_FcoR5q3SVmJZleG2-6-131" value="&lt;font style=&quot;font-size: 36px;&quot;&gt;Lasso 5&lt;/font&gt;" style="rounded=1;whiteSpace=wrap;html=1;" parent="1" vertex="1">
          <mxGeometry x="4700" y="1090" width="290" height="90" as="geometry" />
        </mxCell>
        <mxCell id="t_FcoR5q3SVmJZleG2-6-132" value="Lasso on seed s1" style="rounded=1;whiteSpace=wrap;html=1;" parent="1" vertex="1">
          <mxGeometry x="4700" y="1330" width="120" height="30" as="geometry" />
        </mxCell>
        <mxCell id="t_FcoR5q3SVmJZleG2-6-133" value="Lasso on seed s2" style="rounded=1;whiteSpace=wrap;html=1;" parent="1" vertex="1">
          <mxGeometry x="4700" y="1370" width="120" height="30" as="geometry" />
        </mxCell>
        <mxCell id="t_FcoR5q3SVmJZleG2-6-134" value="&lt;font style=&quot;font-size: 11px;&quot;&gt;---------------&lt;/font&gt;" style="rounded=1;whiteSpace=wrap;html=1;" parent="1" vertex="1">
          <mxGeometry x="4700" y="1410" width="120" height="30" as="geometry" />
        </mxCell>
        <mxCell id="t_FcoR5q3SVmJZleG2-6-135" value="Lasso on seed s19" style="rounded=1;whiteSpace=wrap;html=1;" parent="1" vertex="1">
          <mxGeometry x="4700" y="1450" width="120" height="30" as="geometry" />
        </mxCell>
        <mxCell id="t_FcoR5q3SVmJZleG2-6-136" value="Lasso on seed s20" style="rounded=1;whiteSpace=wrap;html=1;" parent="1" vertex="1">
          <mxGeometry x="4700" y="1490" width="120" height="30" as="geometry" />
        </mxCell>
        <mxCell id="t_FcoR5q3SVmJZleG2-6-137" value="&lt;font style=&quot;font-size: 18px;&quot;&gt;Self Effect&lt;/font&gt;" style="rounded=1;whiteSpace=wrap;html=1;" parent="1" vertex="1">
          <mxGeometry x="4700" y="1220" width="120" height="50" as="geometry" />
        </mxCell>
        <mxCell id="t_FcoR5q3SVmJZleG2-6-138" value="" style="rounded=0;whiteSpace=wrap;html=1;fillColor=none;" parent="1" vertex="1">
          <mxGeometry x="4690" y="1300" width="140" height="240" as="geometry" />
        </mxCell>
        <mxCell id="t_FcoR5q3SVmJZleG2-6-139" value="" style="shape=flexArrow;endArrow=classic;html=1;rounded=0;exitX=0.5;exitY=0;exitDx=0;exitDy=0;" parent="1" source="t_FcoR5q3SVmJZleG2-6-138" edge="1">
          <mxGeometry width="50" height="50" relative="1" as="geometry">
            <mxPoint x="4710" y="1310" as="sourcePoint" />
            <mxPoint x="4760" y="1270" as="targetPoint" />
          </mxGeometry>
        </mxCell>
        <mxCell id="t_FcoR5q3SVmJZleG2-6-140" value="Lasso on seed s1" style="rounded=1;whiteSpace=wrap;html=1;" parent="1" vertex="1">
          <mxGeometry x="4860" y="1330" width="120" height="30" as="geometry" />
        </mxCell>
        <mxCell id="t_FcoR5q3SVmJZleG2-6-141" value="Lasso on seed s2" style="rounded=1;whiteSpace=wrap;html=1;" parent="1" vertex="1">
          <mxGeometry x="4860" y="1370" width="120" height="30" as="geometry" />
        </mxCell>
        <mxCell id="t_FcoR5q3SVmJZleG2-6-142" value="&lt;font style=&quot;font-size: 11px;&quot;&gt;---------------&lt;/font&gt;" style="rounded=1;whiteSpace=wrap;html=1;" parent="1" vertex="1">
          <mxGeometry x="4860" y="1410" width="120" height="30" as="geometry" />
        </mxCell>
        <mxCell id="t_FcoR5q3SVmJZleG2-6-143" value="Lasso on seed s19" style="rounded=1;whiteSpace=wrap;html=1;" parent="1" vertex="1">
          <mxGeometry x="4860" y="1450" width="120" height="30" as="geometry" />
        </mxCell>
        <mxCell id="t_FcoR5q3SVmJZleG2-6-144" value="Lasso on seed s20" style="rounded=1;whiteSpace=wrap;html=1;" parent="1" vertex="1">
          <mxGeometry x="4860" y="1490" width="120" height="30" as="geometry" />
        </mxCell>
        <mxCell id="t_FcoR5q3SVmJZleG2-6-145" value="&lt;font style=&quot;font-size: 18px;&quot;&gt;Interaction Effect&lt;/font&gt;" style="rounded=1;whiteSpace=wrap;html=1;" parent="1" vertex="1">
          <mxGeometry x="4860" y="1220" width="120" height="50" as="geometry" />
        </mxCell>
        <mxCell id="t_FcoR5q3SVmJZleG2-6-146" value="" style="rounded=0;whiteSpace=wrap;html=1;fillColor=none;" parent="1" vertex="1">
          <mxGeometry x="4850" y="1300" width="140" height="240" as="geometry" />
        </mxCell>
        <mxCell id="t_FcoR5q3SVmJZleG2-6-147" value="" style="shape=flexArrow;endArrow=classic;html=1;rounded=0;exitX=0.5;exitY=0;exitDx=0;exitDy=0;" parent="1" source="t_FcoR5q3SVmJZleG2-6-146" edge="1">
          <mxGeometry width="50" height="50" relative="1" as="geometry">
            <mxPoint x="4870" y="1310" as="sourcePoint" />
            <mxPoint x="4920" y="1270" as="targetPoint" />
          </mxGeometry>
        </mxCell>
        <mxCell id="t_FcoR5q3SVmJZleG2-6-149" value="" style="shape=flexArrow;endArrow=classic;html=1;rounded=0;exitX=0.5;exitY=0;exitDx=0;exitDy=0;" parent="1" source="t_FcoR5q3SVmJZleG2-6-145" edge="1">
          <mxGeometry width="50" height="50" relative="1" as="geometry">
            <mxPoint x="4919.5" y="1210" as="sourcePoint" />
            <mxPoint x="4919.5" y="1180" as="targetPoint" />
          </mxGeometry>
        </mxCell>
        <mxCell id="t_FcoR5q3SVmJZleG2-6-150" value="" style="shape=flexArrow;endArrow=classic;html=1;rounded=0;exitX=0.444;exitY=0.017;exitDx=0;exitDy=0;exitPerimeter=0;" parent="1" edge="1">
          <mxGeometry width="50" height="50" relative="1" as="geometry">
            <mxPoint x="4850" y="1090" as="sourcePoint" />
            <mxPoint x="4851" y="1038" as="targetPoint" />
          </mxGeometry>
        </mxCell>
        <mxCell id="t_FcoR5q3SVmJZleG2-6-151" value="&lt;b&gt;&lt;font style=&quot;font-size: 36px;&quot;&gt;----&lt;/font&gt;&lt;/b&gt;" style="rounded=1;whiteSpace=wrap;html=1;" parent="1" vertex="1">
          <mxGeometry x="4590" y="1090" width="90" height="90" as="geometry" />
        </mxCell>
        <mxCell id="t_FcoR5q3SVmJZleG2-6-152" value="" style="shape=flexArrow;endArrow=classic;html=1;rounded=0;entryX=0;entryY=0.5;entryDx=0;entryDy=0;exitX=1;exitY=0.5;exitDx=0;exitDy=0;" parent="1" source="t_FcoR5q3SVmJZleG2-6-114" target="t_FcoR5q3SVmJZleG2-6-122" edge="1">
          <mxGeometry width="50" height="50" relative="1" as="geometry">
            <mxPoint x="4400" y="1240" as="sourcePoint" />
            <mxPoint x="4450" y="1200" as="targetPoint" />
          </mxGeometry>
        </mxCell>
        <mxCell id="t_FcoR5q3SVmJZleG2-6-153" value="" style="shape=flexArrow;endArrow=classic;html=1;rounded=0;entryX=0;entryY=0.5;entryDx=0;entryDy=0;exitX=1;exitY=0.5;exitDx=0;exitDy=0;" parent="1" edge="1">
          <mxGeometry width="50" height="50" relative="1" as="geometry">
            <mxPoint x="4820" y="1244.5" as="sourcePoint" />
            <mxPoint x="4860" y="1244.5" as="targetPoint" />
          </mxGeometry>
        </mxCell>
        <mxCell id="t_FcoR5q3SVmJZleG2-6-155" value="&lt;h3&gt;&lt;font style=&quot;font-size: 36px;&quot;&gt;Lasso Models&lt;/font&gt;&lt;/h3&gt;" style="rounded=1;whiteSpace=wrap;html=1;" parent="1" vertex="1">
          <mxGeometry x="4290" y="960" width="740" height="80" as="geometry" />
        </mxCell>
        <mxCell id="t_FcoR5q3SVmJZleG2-6-158" value="&lt;h3&gt;&lt;font style=&quot;font-size: 36px;&quot;&gt;Bayesian Models&lt;/font&gt;&lt;/h3&gt;" style="rounded=1;whiteSpace=wrap;html=1;" parent="1" vertex="1">
          <mxGeometry x="5140" y="960" width="570" height="80" as="geometry" />
        </mxCell>
        <mxCell id="t_FcoR5q3SVmJZleG2-6-159" value="" style="shape=flexArrow;endArrow=classic;html=1;rounded=0;entryX=0;entryY=0.5;entryDx=0;entryDy=0;exitX=1;exitY=0.5;exitDx=0;exitDy=0;" parent="1" target="t_FcoR5q3SVmJZleG2-6-158" edge="1">
          <mxGeometry width="50" height="50" relative="1" as="geometry">
            <mxPoint x="5030" y="1000" as="sourcePoint" />
            <mxPoint x="5070" y="1000" as="targetPoint" />
          </mxGeometry>
        </mxCell>
        <mxCell id="t_FcoR5q3SVmJZleG2-6-160" value="&lt;h2&gt;&lt;font style=&quot;font-size: 36px;&quot;&gt;2 Year PPGS&lt;/font&gt;&lt;/h2&gt;" style="rounded=0;whiteSpace=wrap;html=1;" parent="1" vertex="1">
          <mxGeometry x="4010" y="840" width="1750" height="60" as="geometry" />
        </mxCell>
        <mxCell id="t_FcoR5q3SVmJZleG2-6-161" value="&lt;h2&gt;&lt;font style=&quot;font-size: 36px;&quot;&gt;1 Year PPGS&lt;/font&gt;&lt;/h2&gt;" style="rounded=0;whiteSpace=wrap;html=1;" parent="1" vertex="1">
          <mxGeometry x="5800" y="840" width="390" height="60" as="geometry" />
        </mxCell>
        <mxCell id="t_FcoR5q3SVmJZleG2-6-184" value="Lasso on seed s1" style="rounded=1;whiteSpace=wrap;html=1;" parent="1" vertex="1">
          <mxGeometry x="5850" y="1210" width="120" height="30" as="geometry" />
        </mxCell>
        <mxCell id="t_FcoR5q3SVmJZleG2-6-185" value="Lasso on seed s2" style="rounded=1;whiteSpace=wrap;html=1;" parent="1" vertex="1">
          <mxGeometry x="5850" y="1250" width="120" height="30" as="geometry" />
        </mxCell>
        <mxCell id="t_FcoR5q3SVmJZleG2-6-186" value="&lt;font style=&quot;font-size: 11px;&quot;&gt;---------------&lt;/font&gt;" style="rounded=1;whiteSpace=wrap;html=1;" parent="1" vertex="1">
          <mxGeometry x="5850" y="1290" width="120" height="30" as="geometry" />
        </mxCell>
        <mxCell id="t_FcoR5q3SVmJZleG2-6-187" value="Lasso on seed s19" style="rounded=1;whiteSpace=wrap;html=1;" parent="1" vertex="1">
          <mxGeometry x="5850" y="1330" width="120" height="30" as="geometry" />
        </mxCell>
        <mxCell id="t_FcoR5q3SVmJZleG2-6-188" value="Lasso on seed s20" style="rounded=1;whiteSpace=wrap;html=1;" parent="1" vertex="1">
          <mxGeometry x="5850" y="1370" width="120" height="30" as="geometry" />
        </mxCell>
        <mxCell id="t_FcoR5q3SVmJZleG2-6-189" value="Self Effect" style="rounded=1;whiteSpace=wrap;html=1;" parent="1" vertex="1">
          <mxGeometry x="5850" y="1100" width="120" height="50" as="geometry" />
        </mxCell>
        <mxCell id="t_FcoR5q3SVmJZleG2-6-190" value="" style="rounded=0;whiteSpace=wrap;html=1;fillColor=none;" parent="1" vertex="1">
          <mxGeometry x="5840" y="1180" width="140" height="240" as="geometry" />
        </mxCell>
        <mxCell id="t_FcoR5q3SVmJZleG2-6-191" value="" style="shape=flexArrow;endArrow=classic;html=1;rounded=0;exitX=0.5;exitY=0;exitDx=0;exitDy=0;" parent="1" source="t_FcoR5q3SVmJZleG2-6-190" edge="1">
          <mxGeometry width="50" height="50" relative="1" as="geometry">
            <mxPoint x="5860" y="1190" as="sourcePoint" />
            <mxPoint x="5910" y="1150" as="targetPoint" />
          </mxGeometry>
        </mxCell>
        <mxCell id="t_FcoR5q3SVmJZleG2-6-192" value="Lasso on seed s1" style="rounded=1;whiteSpace=wrap;html=1;" parent="1" vertex="1">
          <mxGeometry x="6010" y="1210" width="120" height="30" as="geometry" />
        </mxCell>
        <mxCell id="t_FcoR5q3SVmJZleG2-6-193" value="Lasso on seed s2" style="rounded=1;whiteSpace=wrap;html=1;" parent="1" vertex="1">
          <mxGeometry x="6010" y="1250" width="120" height="30" as="geometry" />
        </mxCell>
        <mxCell id="t_FcoR5q3SVmJZleG2-6-194" value="&lt;font style=&quot;font-size: 11px;&quot;&gt;---------------&lt;/font&gt;" style="rounded=1;whiteSpace=wrap;html=1;" parent="1" vertex="1">
          <mxGeometry x="6010" y="1290" width="120" height="30" as="geometry" />
        </mxCell>
        <mxCell id="t_FcoR5q3SVmJZleG2-6-195" value="Lasso on seed s19" style="rounded=1;whiteSpace=wrap;html=1;" parent="1" vertex="1">
          <mxGeometry x="6010" y="1330" width="120" height="30" as="geometry" />
        </mxCell>
        <mxCell id="t_FcoR5q3SVmJZleG2-6-196" value="Lasso on seed s20" style="rounded=1;whiteSpace=wrap;html=1;" parent="1" vertex="1">
          <mxGeometry x="6010" y="1370" width="120" height="30" as="geometry" />
        </mxCell>
        <mxCell id="t_FcoR5q3SVmJZleG2-6-197" value="Interaction Effect" style="rounded=1;whiteSpace=wrap;html=1;" parent="1" vertex="1">
          <mxGeometry x="6010" y="1100" width="120" height="50" as="geometry" />
        </mxCell>
        <mxCell id="t_FcoR5q3SVmJZleG2-6-198" value="" style="rounded=0;whiteSpace=wrap;html=1;fillColor=none;" parent="1" vertex="1">
          <mxGeometry x="6000" y="1180" width="140" height="240" as="geometry" />
        </mxCell>
        <mxCell id="t_FcoR5q3SVmJZleG2-6-199" value="" style="shape=flexArrow;endArrow=classic;html=1;rounded=0;exitX=0.5;exitY=0;exitDx=0;exitDy=0;" parent="1" source="t_FcoR5q3SVmJZleG2-6-198" edge="1">
          <mxGeometry width="50" height="50" relative="1" as="geometry">
            <mxPoint x="6020" y="1190" as="sourcePoint" />
            <mxPoint x="6070" y="1150" as="targetPoint" />
          </mxGeometry>
        </mxCell>
        <mxCell id="t_FcoR5q3SVmJZleG2-6-202" value="" style="shape=flexArrow;endArrow=classic;html=1;rounded=0;entryX=0;entryY=0.5;entryDx=0;entryDy=0;exitX=1;exitY=0.5;exitDx=0;exitDy=0;" parent="1" source="t_FcoR5q3SVmJZleG2-6-189" target="t_FcoR5q3SVmJZleG2-6-197" edge="1">
          <mxGeometry width="50" height="50" relative="1" as="geometry">
            <mxPoint x="5970" y="1120" as="sourcePoint" />
            <mxPoint x="6020" y="1080" as="targetPoint" />
          </mxGeometry>
        </mxCell>
        <mxCell id="t_FcoR5q3SVmJZleG2-6-203" value="&lt;h3&gt;&lt;font style=&quot;font-size: 36px;&quot;&gt;Lasso Models&lt;/font&gt;&lt;/h3&gt;" style="rounded=1;whiteSpace=wrap;html=1;" parent="1" vertex="1">
          <mxGeometry x="5840" y="960" width="300" height="80" as="geometry" />
        </mxCell>
        <mxCell id="t_FcoR5q3SVmJZleG2-6-204" value="" style="shape=flexArrow;endArrow=classic;html=1;rounded=0;exitX=0.5;exitY=0;exitDx=0;exitDy=0;" parent="1" source="t_FcoR5q3SVmJZleG2-6-197" edge="1">
          <mxGeometry width="50" height="50" relative="1" as="geometry">
            <mxPoint x="6069" y="1070" as="sourcePoint" />
            <mxPoint x="6069" y="1040" as="targetPoint" />
          </mxGeometry>
        </mxCell>
        <mxCell id="t_FcoR5q3SVmJZleG2-6-206" value="&lt;font style=&quot;font-size: 24px;&quot;&gt;Second Pass&lt;/font&gt;" style="rounded=0;whiteSpace=wrap;html=1;" parent="1" vertex="1">
          <mxGeometry x="6480" y="740" width="850" height="60" as="geometry" />
        </mxCell>
        <mxCell id="t_FcoR5q3SVmJZleG2-6-207" value="" style="rounded=0;whiteSpace=wrap;html=1;fillColor=none;" parent="1" vertex="1">
          <mxGeometry x="6480" y="840" width="390" height="750" as="geometry" />
        </mxCell>
        <mxCell id="t_FcoR5q3SVmJZleG2-6-208" value="&lt;h2&gt;2 Year PPGS&lt;/h2&gt;" style="rounded=0;whiteSpace=wrap;html=1;" parent="1" vertex="1">
          <mxGeometry x="6480" y="840" width="390" height="60" as="geometry" />
        </mxCell>
        <mxCell id="t_FcoR5q3SVmJZleG2-6-209" value="&lt;h3&gt;&lt;font style=&quot;font-size: 18px;&quot;&gt;Bayesian Models&lt;/font&gt;&lt;/h3&gt;" style="rounded=1;whiteSpace=wrap;html=1;" parent="1" vertex="1">
          <mxGeometry x="6515" y="940" width="320" height="80" as="geometry" />
        </mxCell>
        <mxCell id="t_FcoR5q3SVmJZleG2-6-210" value="" style="shape=flexArrow;endArrow=classic;html=1;rounded=0;strokeColor=none;" parent="1" edge="1">
          <mxGeometry width="50" height="50" relative="1" as="geometry">
            <mxPoint x="5600" y="1130" as="sourcePoint" />
            <mxPoint x="5650" y="1080" as="targetPoint" />
          </mxGeometry>
        </mxCell>
        <mxCell id="t_FcoR5q3SVmJZleG2-6-213" value="" style="shape=flexArrow;endArrow=classic;html=1;rounded=0;endWidth=45;endSize=10.424999999999999;entryX=0.487;entryY=0.274;entryDx=0;entryDy=0;entryPerimeter=0;exitX=0.452;exitY=1.094;exitDx=0;exitDy=0;exitPerimeter=0;" parent="1" edge="1">
          <mxGeometry width="50" height="50" relative="1" as="geometry">
            <mxPoint x="5370" y="1047.52" as="sourcePoint" />
            <mxPoint x="6652.289999999999" y="1020" as="targetPoint" />
            <Array as="points">
              <mxPoint x="5370" y="1620" />
              <mxPoint x="6652.360000000001" y="1619.98" />
            </Array>
          </mxGeometry>
        </mxCell>
        <mxCell id="t_FcoR5q3SVmJZleG2-6-215" value="" style="shape=flexArrow;endArrow=classic;html=1;rounded=0;endWidth=45;endSize=10.424999999999999;exitX=0.452;exitY=1.094;exitDx=0;exitDy=0;exitPerimeter=0;" parent="1" edge="1">
          <mxGeometry width="50" height="50" relative="1" as="geometry">
            <mxPoint x="5010" y="1037.52" as="sourcePoint" />
            <mxPoint x="6970" y="1030" as="targetPoint" />
            <Array as="points">
              <mxPoint x="5010" y="1680" />
              <mxPoint x="6970" y="1680" />
            </Array>
          </mxGeometry>
        </mxCell>
        <mxCell id="t_FcoR5q3SVmJZleG2-6-217" value="&lt;h3 style=&quot;border-color: var(--border-color);&quot;&gt;&lt;font style=&quot;border-color: var(--border-color); font-size: 18px;&quot;&gt;Lasso Models&lt;/font&gt;&lt;/h3&gt;" style="rounded=1;whiteSpace=wrap;html=1;" parent="1" vertex="1">
          <mxGeometry x="6940" y="950" width="350" height="80" as="geometry" />
        </mxCell>
        <mxCell id="t_FcoR5q3SVmJZleG2-6-221" value="" style="rounded=0;whiteSpace=wrap;html=1;fillColor=none;" parent="1" vertex="1">
          <mxGeometry x="6925" y="840" width="410" height="750" as="geometry" />
        </mxCell>
        <mxCell id="t_FcoR5q3SVmJZleG2-6-222" value="&lt;h2&gt;1 Year PPGs&lt;/h2&gt;" style="rounded=0;whiteSpace=wrap;html=1;" parent="1" vertex="1">
          <mxGeometry x="6925" y="840" width="410" height="60" as="geometry" />
        </mxCell>
        <mxCell id="t_FcoR5q3SVmJZleG2-6-223" value="Lasso on seed s1" style="rounded=1;whiteSpace=wrap;html=1;" parent="1" vertex="1">
          <mxGeometry x="6990" y="1200" width="120" height="30" as="geometry" />
        </mxCell>
        <mxCell id="t_FcoR5q3SVmJZleG2-6-224" value="Lasso on seed s2" style="rounded=1;whiteSpace=wrap;html=1;" parent="1" vertex="1">
          <mxGeometry x="6990" y="1240" width="120" height="30" as="geometry" />
        </mxCell>
        <mxCell id="t_FcoR5q3SVmJZleG2-6-225" value="&lt;font style=&quot;font-size: 11px;&quot;&gt;---------------&lt;/font&gt;" style="rounded=1;whiteSpace=wrap;html=1;" parent="1" vertex="1">
          <mxGeometry x="6990" y="1280" width="120" height="30" as="geometry" />
        </mxCell>
        <mxCell id="t_FcoR5q3SVmJZleG2-6-226" value="Lasso on seed s19" style="rounded=1;whiteSpace=wrap;html=1;" parent="1" vertex="1">
          <mxGeometry x="6990" y="1320" width="120" height="30" as="geometry" />
        </mxCell>
        <mxCell id="t_FcoR5q3SVmJZleG2-6-227" value="Lasso on seed s20" style="rounded=1;whiteSpace=wrap;html=1;" parent="1" vertex="1">
          <mxGeometry x="6990" y="1360" width="120" height="30" as="geometry" />
        </mxCell>
        <mxCell id="t_FcoR5q3SVmJZleG2-6-228" value="Self Effect" style="rounded=1;whiteSpace=wrap;html=1;" parent="1" vertex="1">
          <mxGeometry x="6990" y="1090" width="120" height="50" as="geometry" />
        </mxCell>
        <mxCell id="t_FcoR5q3SVmJZleG2-6-229" value="" style="rounded=0;whiteSpace=wrap;html=1;fillColor=none;" parent="1" vertex="1">
          <mxGeometry x="6980" y="1170" width="140" height="240" as="geometry" />
        </mxCell>
        <mxCell id="t_FcoR5q3SVmJZleG2-6-230" value="" style="shape=flexArrow;endArrow=classic;html=1;rounded=0;exitX=0.5;exitY=0;exitDx=0;exitDy=0;" parent="1" source="t_FcoR5q3SVmJZleG2-6-229" edge="1">
          <mxGeometry width="50" height="50" relative="1" as="geometry">
            <mxPoint x="7000" y="1180" as="sourcePoint" />
            <mxPoint x="7050" y="1140" as="targetPoint" />
          </mxGeometry>
        </mxCell>
        <mxCell id="t_FcoR5q3SVmJZleG2-6-231" value="Lasso on seed s1" style="rounded=1;whiteSpace=wrap;html=1;" parent="1" vertex="1">
          <mxGeometry x="7150" y="1200" width="120" height="30" as="geometry" />
        </mxCell>
        <mxCell id="t_FcoR5q3SVmJZleG2-6-232" value="Lasso on seed s2" style="rounded=1;whiteSpace=wrap;html=1;" parent="1" vertex="1">
          <mxGeometry x="7150" y="1240" width="120" height="30" as="geometry" />
        </mxCell>
        <mxCell id="t_FcoR5q3SVmJZleG2-6-233" value="&lt;font style=&quot;font-size: 11px;&quot;&gt;---------------&lt;/font&gt;" style="rounded=1;whiteSpace=wrap;html=1;" parent="1" vertex="1">
          <mxGeometry x="7150" y="1280" width="120" height="30" as="geometry" />
        </mxCell>
        <mxCell id="t_FcoR5q3SVmJZleG2-6-234" value="Lasso on seed s19" style="rounded=1;whiteSpace=wrap;html=1;" parent="1" vertex="1">
          <mxGeometry x="7150" y="1320" width="120" height="30" as="geometry" />
        </mxCell>
        <mxCell id="t_FcoR5q3SVmJZleG2-6-236" value="Interaction Effect" style="rounded=1;whiteSpace=wrap;html=1;" parent="1" vertex="1">
          <mxGeometry x="7150" y="1090" width="120" height="50" as="geometry" />
        </mxCell>
        <mxCell id="t_FcoR5q3SVmJZleG2-6-237" value="" style="rounded=0;whiteSpace=wrap;html=1;fillColor=none;" parent="1" vertex="1">
          <mxGeometry x="7140" y="1170" width="140" height="240" as="geometry" />
        </mxCell>
        <mxCell id="t_FcoR5q3SVmJZleG2-6-238" value="" style="shape=flexArrow;endArrow=classic;html=1;rounded=0;exitX=0.5;exitY=0;exitDx=0;exitDy=0;" parent="1" source="t_FcoR5q3SVmJZleG2-6-237" edge="1">
          <mxGeometry width="50" height="50" relative="1" as="geometry">
            <mxPoint x="7160" y="1180" as="sourcePoint" />
            <mxPoint x="7210" y="1140" as="targetPoint" />
          </mxGeometry>
        </mxCell>
        <mxCell id="t_FcoR5q3SVmJZleG2-6-239" value="" style="shape=flexArrow;endArrow=classic;html=1;rounded=0;entryX=0;entryY=0.5;entryDx=0;entryDy=0;exitX=1;exitY=0.5;exitDx=0;exitDy=0;" parent="1" source="t_FcoR5q3SVmJZleG2-6-228" target="t_FcoR5q3SVmJZleG2-6-236" edge="1">
          <mxGeometry width="50" height="50" relative="1" as="geometry">
            <mxPoint x="7110" y="1110" as="sourcePoint" />
            <mxPoint x="7160" y="1070" as="targetPoint" />
          </mxGeometry>
        </mxCell>
        <mxCell id="t_FcoR5q3SVmJZleG2-6-240" value="" style="shape=flexArrow;endArrow=classic;html=1;rounded=0;exitX=0.5;exitY=0;exitDx=0;exitDy=0;" parent="1" source="t_FcoR5q3SVmJZleG2-6-236" edge="1">
          <mxGeometry width="50" height="50" relative="1" as="geometry">
            <mxPoint x="7209" y="1060" as="sourcePoint" />
            <mxPoint x="7209" y="1030" as="targetPoint" />
          </mxGeometry>
        </mxCell>
        <mxCell id="t_FcoR5q3SVmJZleG2-6-241" value="Lasso on seed s20" style="rounded=1;whiteSpace=wrap;html=1;" parent="1" vertex="1">
          <mxGeometry x="7150" y="1360" width="120" height="30" as="geometry" />
        </mxCell>
        <mxCell id="t_FcoR5q3SVmJZleG2-6-242" value="&lt;font style=&quot;font-size: 18px;&quot;&gt;Borrowing&lt;/font&gt;" style="shape=callout;whiteSpace=wrap;html=1;perimeter=calloutPerimeter;" parent="1" vertex="1">
          <mxGeometry x="6220" y="1530" width="120" height="80" as="geometry" />
        </mxCell>
        <mxCell id="t_FcoR5q3SVmJZleG2-6-243" value="&lt;font style=&quot;font-size: 18px;&quot;&gt;Borrowing&lt;/font&gt;" style="shape=callout;whiteSpace=wrap;html=1;perimeter=calloutPerimeter;" parent="1" vertex="1">
          <mxGeometry x="6325" y="1590" width="120" height="80" as="geometry" />
        </mxCell>
        <mxCell id="t_FcoR5q3SVmJZleG2-6-245" value="&lt;h1&gt;Data Extraction&lt;/h1&gt;" style="shape=cylinder3;whiteSpace=wrap;html=1;boundedLbl=1;backgroundOutline=1;size=15;" parent="1" vertex="1">
          <mxGeometry x="-1620" y="-670" width="280" height="230" as="geometry" />
        </mxCell>
        <mxCell id="t_FcoR5q3SVmJZleG2-6-248" value="" style="rounded=0;whiteSpace=wrap;html=1;fillColor=none;" parent="1" vertex="1">
          <mxGeometry x="-1100" y="-780" width="1260" height="430" as="geometry" />
        </mxCell>
        <mxCell id="t_FcoR5q3SVmJZleG2-6-249" value="&lt;h1&gt;UPC PPG Comparision&lt;/h1&gt;" style="rounded=1;whiteSpace=wrap;html=1;" parent="1" vertex="1">
          <mxGeometry x="-1100" y="-780" width="1260" height="130" as="geometry" />
        </mxCell>
        <mxCell id="t_FcoR5q3SVmJZleG2-6-251" value="" style="rounded=0;whiteSpace=wrap;html=1;" parent="1" vertex="1">
          <mxGeometry x="-1100" y="-650" width="620" height="300" as="geometry" />
        </mxCell>
        <mxCell id="t_FcoR5q3SVmJZleG2-6-252" value="&lt;h2&gt;&lt;font style=&quot;font-size: 36px;&quot;&gt;UPC - PPG Mapping&lt;/font&gt;&lt;/h2&gt;" style="rounded=0;whiteSpace=wrap;html=1;" parent="1" vertex="1">
          <mxGeometry x="-460" y="-650" width="620" height="300" as="geometry" />
        </mxCell>
        <mxCell id="t_FcoR5q3SVmJZleG2-6-253" value="" style="rounded=0;whiteSpace=wrap;html=1;fillColor=none;" parent="1" vertex="1">
          <mxGeometry x="290" y="-780" width="1420" height="430" as="geometry" />
        </mxCell>
        <mxCell id="t_FcoR5q3SVmJZleG2-6-254" value="&lt;h1&gt;Data Preparation&lt;/h1&gt;" style="rounded=1;whiteSpace=wrap;html=1;" parent="1" vertex="1">
          <mxGeometry x="290" y="-780" width="1420" height="130" as="geometry" />
        </mxCell>
        <mxCell id="t_FcoR5q3SVmJZleG2-6-255" value="" style="rounded=0;whiteSpace=wrap;html=1;" parent="1" vertex="1">
          <mxGeometry x="290" y="-650" width="710" height="300" as="geometry" />
        </mxCell>
        <mxCell id="t_FcoR5q3SVmJZleG2-6-256" value="" style="rounded=0;whiteSpace=wrap;html=1;" parent="1" vertex="1">
          <mxGeometry x="1010" y="-650" width="700" height="300" as="geometry" />
        </mxCell>
        <mxCell id="t_FcoR5q3SVmJZleG2-6-257" value="&lt;br&gt;&lt;font style=&quot;font-size: 36px;&quot;&gt;&lt;span style=&quot;color: rgb(0, 0, 0); font-family: Helvetica; font-style: normal; font-variant-ligatures: normal; font-variant-caps: normal; font-weight: 400; letter-spacing: normal; orphans: 2; text-align: center; text-indent: 0px; text-transform: none; widows: 2; word-spacing: 0px; -webkit-text-stroke-width: 0px; background-color: rgb(251, 251, 251); text-decoration-thickness: initial; text-decoration-style: initial; text-decoration-color: initial; float: none; display: inline !important;&quot;&gt;Refresh File&lt;/span&gt;&lt;br&gt;&lt;/font&gt;" style="text;html=1;strokeColor=none;fillColor=none;align=center;verticalAlign=middle;whiteSpace=wrap;rounded=0;" parent="1" vertex="1">
          <mxGeometry x="430" y="-640" width="340" height="80" as="geometry" />
        </mxCell>
        <mxCell id="t_FcoR5q3SVmJZleG2-6-258" value="&lt;br&gt;&lt;font style=&quot;&quot;&gt;&lt;span style=&quot;color: rgb(0, 0, 0); font-family: Helvetica; font-style: normal; font-variant-ligatures: normal; font-variant-caps: normal; font-weight: 400; letter-spacing: normal; orphans: 2; text-align: center; text-indent: 0px; text-transform: none; widows: 2; word-spacing: 0px; -webkit-text-stroke-width: 0px; background-color: rgb(251, 251, 251); text-decoration-thickness: initial; text-decoration-style: initial; text-decoration-color: initial; float: none; display: inline !important;&quot;&gt;&lt;font style=&quot;font-size: 36px;&quot;&gt;3 Lassos RMS data from previous quarter&lt;/font&gt;&lt;/span&gt;&lt;br&gt;&lt;/font&gt;" style="text;html=1;strokeColor=none;fillColor=none;align=center;verticalAlign=middle;whiteSpace=wrap;rounded=0;" parent="1" vertex="1">
          <mxGeometry x="310" y="-490" width="680" height="80" as="geometry" />
        </mxCell>
        <mxCell id="t_FcoR5q3SVmJZleG2-6-259" value="&lt;br&gt;&lt;font style=&quot;font-size: 36px;&quot;&gt;&lt;span style=&quot;color: rgb(0, 0, 0); font-family: Helvetica; font-style: normal; font-variant-ligatures: normal; font-variant-caps: normal; font-weight: 400; letter-spacing: normal; orphans: 2; text-align: center; text-indent: 0px; text-transform: none; widows: 2; word-spacing: 0px; -webkit-text-stroke-width: 0px; background-color: rgb(251, 251, 251); text-decoration-thickness: initial; text-decoration-style: initial; text-decoration-color: initial; float: none; display: inline !important;&quot;&gt;Sales data&lt;/span&gt;&lt;br&gt;&lt;/font&gt;" style="text;html=1;strokeColor=none;fillColor=none;align=center;verticalAlign=middle;whiteSpace=wrap;rounded=0;" parent="1" vertex="1">
          <mxGeometry x="440" y="-570" width="340" height="80" as="geometry" />
        </mxCell>
        <mxCell id="t_FcoR5q3SVmJZleG2-6-260" value="" style="shape=flexArrow;endArrow=classic;html=1;rounded=0;entryX=0;entryY=0.5;entryDx=0;entryDy=0;endWidth=51.42857142857143;endSize=10;" parent="1" target="t_FcoR5q3SVmJZleG2-6-257" edge="1">
          <mxGeometry width="50" height="50" relative="1" as="geometry">
            <mxPoint x="50" y="-490" as="sourcePoint" />
            <mxPoint x="100" y="-540" as="targetPoint" />
            <Array as="points">
              <mxPoint x="50" y="-600" />
            </Array>
          </mxGeometry>
        </mxCell>
        <mxCell id="t_FcoR5q3SVmJZleG2-6-261" value="" style="shape=flexArrow;endArrow=classic;html=1;rounded=0;width=31.42857142857143;endSize=12.771428571428572;exitX=1;exitY=0.5;exitDx=0;exitDy=0;exitPerimeter=0;" parent="1" source="t_FcoR5q3SVmJZleG2-6-245" edge="1">
          <mxGeometry width="50" height="50" relative="1" as="geometry">
            <mxPoint x="-1320" y="-550" as="sourcePoint" />
            <mxPoint x="-1090" y="-550" as="targetPoint" />
          </mxGeometry>
        </mxCell>
        <mxCell id="t_FcoR5q3SVmJZleG2-6-264" value="" style="shape=flexArrow;endArrow=classic;html=1;rounded=0;endWidth=48.57142857142858;endSize=12.371428571428572;entryX=0;entryY=0.5;entryDx=0;entryDy=0;entryPerimeter=0;" parent="1" target="t_FcoR5q3SVmJZleG2-6-259" edge="1">
          <mxGeometry width="50" height="50" relative="1" as="geometry">
            <mxPoint x="-1500" y="-430" as="sourcePoint" />
            <mxPoint x="-1070" y="-280" as="targetPoint" />
            <Array as="points">
              <mxPoint x="-1500" y="-220" />
              <mxPoint x="220" y="-210" />
              <mxPoint x="220" y="-530" />
            </Array>
          </mxGeometry>
        </mxCell>
        <mxCell id="t_FcoR5q3SVmJZleG2-6-265" value="&lt;font style=&quot;font-size: 36px;&quot;&gt;RMS_Data_PPG_Category_retailer.Rdata (RMS Data)&lt;/font&gt;" style="text;html=1;strokeColor=none;fillColor=none;align=center;verticalAlign=middle;whiteSpace=wrap;rounded=0;" parent="1" vertex="1">
          <mxGeometry x="1180" y="-515" width="360" height="30" as="geometry" />
        </mxCell>
        <mxCell id="t_FcoR5q3SVmJZleG2-6-266" value="" style="rounded=0;whiteSpace=wrap;html=1;fillColor=none;" parent="1" vertex="1">
          <mxGeometry x="1710" y="-220" width="1770" height="730" as="geometry" />
        </mxCell>
        <mxCell id="t_FcoR5q3SVmJZleG2-6-267" value="&lt;h1&gt;&lt;font style=&quot;font-size: 36px;&quot;&gt;FILTERING&lt;/font&gt;&lt;/h1&gt;" style="rounded=1;whiteSpace=wrap;html=1;" parent="1" vertex="1">
          <mxGeometry x="1710" y="-220" width="1760" height="130" as="geometry" />
        </mxCell>
        <mxCell id="t_FcoR5q3SVmJZleG2-6-268" value="" style="rounded=0;whiteSpace=wrap;html=1;" parent="1" vertex="1">
          <mxGeometry x="1710" y="-90" width="870" height="590" as="geometry" />
        </mxCell>
        <mxCell id="t_FcoR5q3SVmJZleG2-6-269" value="" style="rounded=0;whiteSpace=wrap;html=1;" parent="1" vertex="1">
          <mxGeometry x="2580" y="-90" width="890" height="590" as="geometry" />
        </mxCell>
        <mxCell id="t_FcoR5q3SVmJZleG2-6-270" value="&lt;br&gt;&lt;font style=&quot;font-size: 36px;&quot;&gt;&lt;span style=&quot;color: rgb(0, 0, 0); font-family: Helvetica; font-style: normal; font-variant-ligatures: normal; font-variant-caps: normal; font-weight: 400; letter-spacing: normal; orphans: 2; text-align: center; text-indent: 0px; text-transform: none; widows: 2; word-spacing: 0px; -webkit-text-stroke-width: 0px; background-color: rgb(251, 251, 251); text-decoration-thickness: initial; text-decoration-style: initial; text-decoration-color: initial; float: none; display: inline !important;&quot;&gt;Refresh File&lt;/span&gt;&lt;br&gt;&lt;/font&gt;" style="text;html=1;strokeColor=none;fillColor=none;align=center;verticalAlign=middle;whiteSpace=wrap;rounded=0;" parent="1" vertex="1">
          <mxGeometry x="1850" y="-80" width="340" height="80" as="geometry" />
        </mxCell>
        <mxCell id="t_FcoR5q3SVmJZleG2-6-271" value="&lt;font style=&quot;&quot;&gt;&lt;font style=&quot;font-size: 36px;&quot;&gt;RMS_Data_PPG_CAT_TREATS_Dollar General.RData&lt;/font&gt;&lt;br&gt;&lt;/font&gt;" style="text;html=1;strokeColor=none;fillColor=none;align=center;verticalAlign=middle;whiteSpace=wrap;rounded=0;" parent="1" vertex="1">
          <mxGeometry x="1730" y="70" width="680" height="80" as="geometry" />
        </mxCell>
        <mxCell id="t_FcoR5q3SVmJZleG2-6-273" value="&lt;font style=&quot;font-size: 36px;&quot;&gt;CrossBox_Model_EDLP_TPR_Category_Retailer start date to end date_Optimizer_1.RData&lt;/font&gt;" style="text;html=1;strokeColor=none;fillColor=none;align=center;verticalAlign=middle;whiteSpace=wrap;rounded=0;" parent="1" vertex="1">
          <mxGeometry x="2570" y="-70" width="900" height="240" as="geometry" />
        </mxCell>
        <mxCell id="t_FcoR5q3SVmJZleG2-6-274" value="&lt;font style=&quot;font-size: 36px;&quot;&gt;CrossBox_Model_EDLP_TPR_Category_Retailer start date to end date_Optimizer_2.RData&lt;/font&gt;" style="text;html=1;strokeColor=none;fillColor=none;align=center;verticalAlign=middle;whiteSpace=wrap;rounded=0;" parent="1" vertex="1">
          <mxGeometry x="2580" y="190" width="900" height="240" as="geometry" />
        </mxCell>
        <mxCell id="t_FcoR5q3SVmJZleG2-6-275" value="" style="shape=flexArrow;endArrow=classic;html=1;rounded=0;exitX=0.5;exitY=1;exitDx=0;exitDy=0;endWidth=56;endSize=13.08;width=16;entryX=0;entryY=0.75;entryDx=0;entryDy=0;" parent="1" source="t_FcoR5q3SVmJZleG2-6-252" target="t_FcoR5q3SVmJZleG2-6-270" edge="1">
          <mxGeometry width="50" height="50" relative="1" as="geometry">
            <mxPoint x="200" y="180" as="sourcePoint" />
            <mxPoint x="250" y="130" as="targetPoint" />
            <Array as="points">
              <mxPoint x="-150" y="-10" />
            </Array>
          </mxGeometry>
        </mxCell>
        <mxCell id="t_FcoR5q3SVmJZleG2-6-276" value="" style="shape=flexArrow;endArrow=classic;html=1;rounded=0;exitX=0.5;exitY=1;exitDx=0;exitDy=0;endWidth=84;endSize=10;entryX=0;entryY=0.25;entryDx=0;entryDy=0;" parent="1" source="t_FcoR5q3SVmJZleG2-6-256" target="t_FcoR5q3SVmJZleG2-6-271" edge="1">
          <mxGeometry width="50" height="50" relative="1" as="geometry">
            <mxPoint x="1380" y="-130" as="sourcePoint" />
            <mxPoint x="1430" y="-180" as="targetPoint" />
            <Array as="points">
              <mxPoint x="1370" y="90" />
            </Array>
          </mxGeometry>
        </mxCell>
        <mxCell id="t_FcoR5q3SVmJZleG2-6-278" value="" style="shape=flexArrow;endArrow=classic;html=1;rounded=0;exitX=1;exitY=0.5;exitDx=0;exitDy=0;endWidth=56.66666666666667;endSize=10.966666666666667;entryX=0.5;entryY=1;entryDx=0;entryDy=0;" parent="1" source="t_FcoR5q3SVmJZleG2-6-273" target="t_FcoR5q3SVmJZleG2-6-115" edge="1">
          <mxGeometry width="50" height="50" relative="1" as="geometry">
            <mxPoint x="3400" y="860" as="sourcePoint" />
            <mxPoint x="3450" y="810" as="targetPoint" />
            <Array as="points">
              <mxPoint x="3800" y="50" />
              <mxPoint x="3800" y="1700" />
              <mxPoint x="4340" y="1700" />
            </Array>
          </mxGeometry>
        </mxCell>
        <mxCell id="t_FcoR5q3SVmJZleG2-6-280" value="" style="shape=flexArrow;endArrow=classic;html=1;rounded=0;entryX=0.5;entryY=1;entryDx=0;entryDy=0;endWidth=66.66666666666667;endSize=10.1;" parent="1" target="t_FcoR5q3SVmJZleG2-6-123" edge="1">
          <mxGeometry width="50" height="50" relative="1" as="geometry">
            <mxPoint x="4350" y="1700" as="sourcePoint" />
            <mxPoint x="4320" y="1650" as="targetPoint" />
            <Array as="points">
              <mxPoint x="4500" y="1700" />
            </Array>
          </mxGeometry>
        </mxCell>
        <mxCell id="t_FcoR5q3SVmJZleG2-6-281" value="" style="rounded=0;whiteSpace=wrap;html=1;" parent="1" vertex="1">
          <mxGeometry x="3470" y="330" width="320" height="10" as="geometry" />
        </mxCell>
        <mxCell id="t_FcoR5q3SVmJZleG2-6-282" value="" style="rounded=0;whiteSpace=wrap;html=1;fillColor=none;" parent="1" vertex="1">
          <mxGeometry x="4010" y="840" width="1750" height="750" as="geometry" />
        </mxCell>
      </root>
    </mxGraphModel>
  </diagram>
</mxfile>
